# xmcd
#
# Track frame offsets: 
#        150
#        10276
#        15930
#        24867
#        39450
#        54077
#        69125
#        75597
#        82107
#        85554
#
# Disc length: 1579 seconds
#
# Revision: 0
# Processed by: cddbd v1.5.2PL0 Copyright (c) Steve Scherf et al.
# Submitted via: ExactAudioCopy v0.95b3
#
DISCID=5806290a
DTITLE=The Beatles  - Way Beyond Compare - Episode 08 The Cavern Club 
DTITLE=(5 Sept 1962-October 1962)  FLAC
DYEAR=1900
DGENRE=
TTITLE0=Some Other Guy
TTITLE1=Kansas City - Hey!-Hey!-Hey!-Hey! [Grenada-TV]
TTITLE2=Please Please Me - RM from unknown take
TTITLE3=I Saw Her Standing There
TTITLE4=One After 909 - take 1
TTITLE5=One After 909 - take 2
TTITLE6=Catswalk - take 1
TTITLE7=Catswalk - take 2
TTITLE8=A Taste Of Honey
TTITLE9=Radio Interview_ Sunday Spin
EXTD=
EXTT0=
EXTT1=
EXTT2=
EXTT3=
EXTT4=
EXTT5=
EXTT6=
EXTT7=
EXTT8=
EXTT9=
PLAYORDER=
